<svg xmlns="http://www.w3.org/2000/svg" width="20" height="20" viewBox="0 0 20 20">
  <path id="Icon_material-shopping-cart" data-name="Icon material-shopping-cart" d="M7.5,19a2,2,0,1,0,2,2A2,2,0,0,0,7.5,19ZM1.5,3V5h2l3.6,7.59L5.75,15.04A1.933,1.933,0,0,0,5.5,16a2.006,2.006,0,0,0,2,2h12V16H7.92a.248.248,0,0,1-.25-.25l.03-.12L8.6,14h7.45a1.991,1.991,0,0,0,1.75-1.03l3.58-6.49A.977.977,0,0,0,21.5,6a1,1,0,0,0-1-1H5.71L4.77,3Zm16,16a2,2,0,1,0,2,2A2,2,0,0,0,17.5,19Z" transform="translate(-1.5 -3)" fill="#3c2b75"/>
</svg>
