<svg id="icon" xmlns="http://www.w3.org/2000/svg" width="20.44" height="20.531" viewBox="0 0 20.44 20.531">
  <path id="Phone" d="M14.132,20.531c-3.11,0-6.68-1.713-9.551-4.582-4.758-4.759-6-10.971-2.828-14.144A5.89,5.89,0,0,1,5.145.11L5.906,0,8.7,6.521l-2.8,1.4a16.241,16.241,0,0,0,2.919,3.785,16.7,16.7,0,0,0,3.77,2.9l1.314-2.573,6.483.926.039.827a6.419,6.419,0,0,1-1.706,5A6.314,6.314,0,0,1,14.132,20.531ZM4.7,2.263h0a3.906,3.906,0,0,0-1.532.959C2.055,4.334,1.741,6.138,2.282,8.3A13.855,13.855,0,0,0,6,14.535c2.448,2.447,5.58,3.968,8.174,3.968a4.321,4.321,0,0,0,3.14-1.14,4.082,4.082,0,0,0,1.11-2.67l-3.367-.481-.646,1.294a1.973,1.973,0,0,1-1.185,1.01,1.994,1.994,0,0,1-.6.092,2.058,2.058,0,0,1-.982-.25,18.7,18.7,0,0,1-4.228-3.237A18.347,18.347,0,0,1,4.142,8.873,2.01,2.01,0,0,1,5.014,6.13L6.12,5.576,4.7,2.264Z" fill="#92989f"/>
</svg>
